STARTFONT 2.1
COMMENT $XConsortium: luBS12.bdf,v 1.7 94/04/02 16:23:06 gildea Exp $
COMMENT  (c) Copyright Bigelow & Holmes 1986, 1985. Lucida is a registered
COMMENT  trademark of Bigelow & Holmes. See LEGAL NOTICE file for terms 
COMMENT  of the license. 
COMMENT  
COMMENT  Translation to ISO8859-2 by Cub Soft;  Petr.Kolar@vslib.cz
COMMENT  
FONT -B&H-Lucida-Bold-R-Normal-Sans-17-120-100-100-P-108-ISO8859-2
SIZE 12 100 100
FONTBOUNDINGBOX 33 18 -11 -3
STARTPROPERTIES 20
COMMENT Begin LogicalFontDescription
FONTNAME_REGISTRY ""
FOUNDRY "B&H"
FAMILY_NAME "Lucida"
WEIGHT_NAME "Bold"
SLANT "R"
SETWIDTH_NAME "Normal"
ADD_STYLE_NAME "Sans"
PIXEL_SIZE 17
POINT_SIZE 120
RESOLUTION_X 100
RESOLUTION_Y 100
SPACING "P"
AVERAGE_WIDTH 108
CHARSET_REGISTRY "ISO8859"
CHARSET_ENCODING "2"
COMMENT END LogicalFontDescription
FONT_ASCENT 15
FONT_DESCENT 4
DEFAULT_CHAR 0
COPYRIGHT "Copyright Bigelow & Holmes 1986, 1985., Copyright 1996 Cub Soft"
FACE_NAME "Lucida Sans Bold"
ENDPROPERTIES
CHARS 191
STARTCHAR space
ENCODING 32
SWIDTH 343 0
DWIDTH 6 0
BBX 1 1 0 0
BITMAP
00
ENDCHAR
STARTCHAR exclam
ENCODING 33
SWIDTH 265 0
DWIDTH 6 0
BBX 3 12 1 0
BITMAP
e0
e0
e0
e0
e0
60
60
60
00
00
e0
e0
ENDCHAR
STARTCHAR quotedbl
ENCODING 34
SWIDTH 530 0
DWIDTH 9 0
BBX 8 6 1 6
BITMAP
e7
e7
e7
66
66
66
ENDCHAR
STARTCHAR numbersign
ENCODING 35
SWIDTH 687 0
DWIDTH 12 0
BBX 11 12 0 0
BITMAP
0cc0
0dc0
1d80
7fe0
7fe0
1980
3300
ffc0
ffc0
3700
7600
6600
ENDCHAR
STARTCHAR dollar
ENCODING 36
SWIDTH 687 0
DWIDTH 12 0
BBX 8 17 2 -2
BITMAP
18
18
18
7e
7e
e8
e8
78
7c
1e
1f
17
97
ff
fe
18
18
ENDCHAR
STARTCHAR percent
ENCODING 37
SWIDTH 898 0
DWIDTH 15 0
BBX 15 12 0 0
BITMAP
781c
fc38
cc70
cce0
fdc0
7980
033c
077e
0e66
1c66
387e
703c
ENDCHAR
STARTCHAR ampersand
ENCODING 38
SWIDTH 792 0
DWIDTH 13 0
BBX 12 12 1 0
BITMAP
1f00
3f80
3980
3980
1f00
3e30
7f30
e760
e7e0
f3c0
7fc0
3ee0
ENDCHAR
STARTCHAR apostrophe
ENCODING 39
SWIDTH 265 0
DWIDTH 4 0
BBX 3 5 1 7
BITMAP
e0
e0
e0
60
c0
ENDCHAR
STARTCHAR parenleft
ENCODING 40
SWIDTH 386 0
DWIDTH 7 0
BBX 5 15 1 -3
BITMAP
08
18
30
70
60
e0
e0
e0
e0
e0
60
70
30
18
08
ENDCHAR
STARTCHAR parenright
ENCODING 41
SWIDTH 386 0
DWIDTH 7 0
BBX 5 15 1 -3
BITMAP
80
c0
60
70
30
38
38
38
38
38
30
70
60
c0
80
ENDCHAR
STARTCHAR asterisk
ENCODING 42
SWIDTH 464 0
DWIDTH 8 0
BBX 7 6 0 6
BITMAP
38
54
ee
28
6c
28
ENDCHAR
STARTCHAR plus
ENCODING 43
SWIDTH 687 0
DWIDTH 12 0
BBX 10 10 1 0
BITMAP
0c00
0c00
0c00
0c00
ffc0
ffc0
0c00
0c00
0c00
0c00
ENDCHAR
STARTCHAR comma
ENCODING 44
SWIDTH 343 0
DWIDTH 6 0
BBX 3 6 1 -3
BITMAP
e0
e0
e0
60
60
c0
ENDCHAR
STARTCHAR minus
ENCODING 45
SWIDTH 687 0
DWIDTH 12 0
BBX 10 2 1 4
BITMAP
ffc0
ffc0
ENDCHAR
STARTCHAR period
ENCODING 46
SWIDTH 343 0
DWIDTH 6 0
BBX 3 3 1 0
BITMAP
e0
e0
e0
ENDCHAR
STARTCHAR slash
ENCODING 47
SWIDTH 596 0
DWIDTH 10 0
BBX 10 15 0 -3
BITMAP
01c0
0180
0380
0300
0700
0600
0e00
0c00
1c00
1800
3800
3000
7000
6000
e000
ENDCHAR
STARTCHAR zero
ENCODING 48
SWIDTH 687 0
DWIDTH 12 0
BBX 10 12 1 0
BITMAP
1e00
3f00
7380
e1c0
e1c0
e1c0
e1c0
e1c0
e1c0
7380
3f00
1e00
ENDCHAR
STARTCHAR one
ENCODING 49
SWIDTH 687 0
DWIDTH 12 0
BBX 5 12 3 0
BITMAP
f8
f8
38
38
38
38
38
38
38
38
38
38
ENDCHAR
STARTCHAR two
ENCODING 50
SWIDTH 687 0
DWIDTH 12 0
BBX 9 12 1 0
BITMAP
7e00
ff00
8780
0380
0380
0700
0e00
1c00
7800
f000
ff80
ff80
ENDCHAR
STARTCHAR three
ENCODING 51
SWIDTH 687 0
DWIDTH 12 0
BBX 9 12 2 0
BITMAP
7e00
ff80
8380
0380
0700
7c00
7f00
0780
0380
8780
ff00
fe00
ENDCHAR
STARTCHAR four
ENCODING 52
SWIDTH 687 0
DWIDTH 12 0
BBX 10 12 1 0
BITMAP
0780
0780
0f80
1b80
3b80
7380
e380
ffc0
ffc0
0380
0380
0380
ENDCHAR
STARTCHAR five
ENCODING 53
SWIDTH 687 0
DWIDTH 12 0
BBX 8 12 2 0
BITMAP
ff
ff
c0
c0
f8
fe
0f
07
07
8f
fe
fc
ENDCHAR
STARTCHAR six
ENCODING 54
SWIDTH 687 0
DWIDTH 12 0
BBX 10 12 1 0
BITMAP
1f80
3f80
7880
f000
ef00
ff80
f3c0
e1c0
e1c0
73c0
7f80
1f00
ENDCHAR
STARTCHAR seven
ENCODING 55
SWIDTH 687 0
DWIDTH 12 0
BBX 9 12 2 0
BITMAP
ff80
ff80
0380
0700
0e00
0c00
1c00
3800
3800
7000
7000
f000
ENDCHAR
STARTCHAR eight
ENCODING 56
SWIDTH 687 0
DWIDTH 12 0
BBX 10 12 1 0
BITMAP
1f00
7f80
7380
7380
7b00
3f00
7f80
e3c0
e1c0
f1c0
7f80
3f00
ENDCHAR
STARTCHAR nine
ENCODING 57
SWIDTH 687 0
DWIDTH 12 0
BBX 10 12 1 0
BITMAP
3e00
7f80
f380
e1c0
e1c0
f3c0
7fc0
3dc0
03c0
4780
7f00
7e00
ENDCHAR
STARTCHAR colon
ENCODING 58
SWIDTH 343 0
DWIDTH 6 0
BBX 3 9 1 0
BITMAP
e0
e0
e0
00
00
00
e0
e0
e0
ENDCHAR
STARTCHAR semicolon
ENCODING 59
SWIDTH 343 0
DWIDTH 6 0
BBX 3 12 1 -3
BITMAP
e0
e0
e0
00
00
00
e0
e0
e0
60
60
c0
ENDCHAR
STARTCHAR less
ENCODING 60
SWIDTH 687 0
DWIDTH 12 0
BBX 10 10 1 0
BITMAP
0040
01c0
0780
1e00
f800
7800
1e00
0780
01c0
0040
ENDCHAR
STARTCHAR equal
ENCODING 61
SWIDTH 687 0
DWIDTH 12 0
BBX 10 6 1 2
BITMAP
ffc0
ffc0
0000
0000
ffc0
ffc0
ENDCHAR
STARTCHAR greater
ENCODING 62
SWIDTH 687 0
DWIDTH 12 0
BBX 10 10 1 0
BITMAP
8000
e000
7800
1e00
0780
07c0
1e00
7800
e000
8000
ENDCHAR
STARTCHAR question
ENCODING 63
SWIDTH 572 0
DWIDTH 10 0
BBX 8 12 1 0
BITMAP
fc
ff
87
07
06
0c
18
38
38
00
38
38
ENDCHAR
STARTCHAR at
ENCODING 64
SWIDTH 833 0
DWIDTH 14 0
BBX 14 12 1 0
BITMAP
07e0
1c10
3008
63e4
4464
8844
98c4
99c8
9fc8
4cf0
2080
1f00
ENDCHAR
STARTCHAR A
ENCODING 65
SWIDTH 773 0
DWIDTH 13 0
BBX 13 12 0 0
BITMAP
0700
0f80
0f80
1fc0
19c0
19c0
31e0
3fe0
7ff0
6070
6070
c078
ENDCHAR
STARTCHAR B
ENCODING 66
SWIDTH 669 0
DWIDTH 11 0
BBX 9 12 2 0
BITMAP
fe00
ff00
e700
e700
e600
fc00
ff00
e780
e380
e380
ff80
fe00
ENDCHAR
STARTCHAR C
ENCODING 67
SWIDTH 726 0
DWIDTH 12 0
BBX 11 12 1 0
BITMAP
0fe0
3fe0
7820
f000
e000
e000
e000
e000
f000
7820
3fe0
0fc0
ENDCHAR
STARTCHAR D
ENCODING 68
SWIDTH 819 0
DWIDTH 14 0
BBX 12 12 1 0
BITMAP
ff80
ffc0
e1e0
e0f0
e070
e070
e070
e070
e070
e0e0
ffc0
ff80
ENDCHAR
STARTCHAR E
ENCODING 69
SWIDTH 645 0
DWIDTH 11 0
BBX 9 12 1 0
BITMAP
ff80
ff80
e000
e000
e000
ff00
ff00
e000
e000
e000
ff80
ff80
ENDCHAR
STARTCHAR F
ENCODING 70
SWIDTH 602 0
DWIDTH 10 0
BBX 8 12 2 0
BITMAP
ff
ff
e0
e0
e0
fe
fe
e0
e0
e0
e0
e0
ENDCHAR
STARTCHAR G
ENCODING 71
SWIDTH 759 0
DWIDTH 13 0
BBX 11 12 1 0
BITMAP
0fe0
3fe0
7820
f000
e000
e000
e0e0
e0e0
f0e0
78e0
3fe0
0fe0
ENDCHAR
STARTCHAR H
ENCODING 72
SWIDTH 813 0
DWIDTH 14 0
BBX 11 12 1 0
BITMAP
e0e0
e0e0
e0e0
e0e0
e0e0
ffe0
ffe0
e0e0
e0e0
e0e0
e0e0
e0e0
ENDCHAR
STARTCHAR I
ENCODING 73
SWIDTH 361 0
DWIDTH 6 0
BBX 3 12 2 0
BITMAP
e0
e0
e0
e0
e0
e0
e0
e0
e0
e0
e0
e0
ENDCHAR
STARTCHAR J
ENCODING 74
SWIDTH 501 0
DWIDTH 9 0
BBX 7 15 0 -3
BITMAP
0e
0e
0e
0e
0e
0e
0e
0e
0e
0e
0e
0e
0e
fc
f8
ENDCHAR
STARTCHAR K
ENCODING 75
SWIDTH 753 0
DWIDTH 13 0
BBX 11 12 2 0
BITMAP
e1c0
e380
e300
e600
ee00
fc00
fe00
ef00
e700
e780
e3c0
e1e0
ENDCHAR
STARTCHAR L
ENCODING 76
SWIDTH 620 0
DWIDTH 11 0
BBX 9 12 1 0
BITMAP
e000
e000
e000
e000
e000
e000
e000
e000
e000
e000
ff80
ff80
ENDCHAR
STARTCHAR M
ENCODING 77
SWIDTH 940 0
DWIDTH 16 0
BBX 13 12 2 0
BITMAP
f078
f878
f8f8
f8f8
fcf8
ddb8
ddb8
dfb8
cf38
cf38
c738
c038
ENDCHAR
STARTCHAR N
ENCODING 78
SWIDTH 783 0
DWIDTH 13 0
BBX 10 12 2 0
BITMAP
e0c0
f0c0
f0c0
f8c0
fcc0
dcc0
cec0
cfc0
c7c0
c3c0
c3c0
c1c0
ENDCHAR
STARTCHAR O
ENCODING 79
SWIDTH 855 0
DWIDTH 15 0
BBX 13 12 1 0
BITMAP
0f80
3fe0
78f0
f078
e038
e038
e038
e038
f078
78f0
3fe0
0f80
ENDCHAR
STARTCHAR P
ENCODING 80
SWIDTH 657 0
DWIDTH 11 0
BBX 9 12 2 0
BITMAP
ff00
ff80
e380
e380
e780
ff00
fe00
e000
e000
e000
e000
e000
ENDCHAR
STARTCHAR Q
ENCODING 81
SWIDTH 855 0
DWIDTH 15 0
BBX 15 15 1 -3
BITMAP
0f80
3fe0
78f0
f078
e038
e038
e038
e038
f078
78f0
3fe0
0fc0
00fe
007c
0018
ENDCHAR
STARTCHAR R
ENCODING 82
SWIDTH 734 0
DWIDTH 12 0
BBX 11 12 1 0
BITMAP
fe00
ff80
e380
e380
e780
ff00
fe00
ef00
e700
e380
e3c0
e1e0
ENDCHAR
STARTCHAR S
ENCODING 83
SWIDTH 594 0
DWIDTH 10 0
BBX 9 12 1 0
BITMAP
3f00
7f00
f100
f000
f800
7e00
3f00
0780
0380
8380
ff00
fe00
ENDCHAR
STARTCHAR T
ENCODING 84
SWIDTH 735 0
DWIDTH 12 0
BBX 11 12 1 0
BITMAP
ffe0
ffe0
0e00
0e00
0e00
0e00
0e00
0e00
0e00
0e00
0e00
0e00
ENDCHAR
STARTCHAR U
ENCODING 85
SWIDTH 783 0
DWIDTH 13 0
BBX 10 12 2 0
BITMAP
e1c0
e1c0
e1c0
e1c0
e1c0
e1c0
e1c0
e1c0
e1c0
f3c0
7f80
3f00
ENDCHAR
STARTCHAR V
ENCODING 86
SWIDTH 735 0
DWIDTH 12 0
BBX 12 12 0 0
BITMAP
e030
7060
7060
7860
38c0
38c0
1dc0
1d80
1d80
0f80
0f00
0f00
ENDCHAR
STARTCHAR W
ENCODING 87
SWIDTH 940 0
DWIDTH 16 0
BBX 16 12 0 0
BITMAP
e1c3
f1c3
71c6
73e6
73e6
7bee
3bec
3e7c
3e7c
3e7c
1e78
1c38
ENDCHAR
STARTCHAR X
ENCODING 88
SWIDTH 699 0
DWIDTH 12 0
BBX 11 12 1 0
BITMAP
f0e0
79c0
3980
3f80
1f00
0e00
0f00
1f00
3f80
3380
63c0
e1e0
ENDCHAR
STARTCHAR Y
ENCODING 89
SWIDTH 738 0
DWIDTH 13 0
BBX 11 12 1 0
BITMAP
f0e0
70c0
79c0
3980
1f00
1f00
0e00
0e00
0e00
0e00
0e00
0e00
ENDCHAR
STARTCHAR Z
ENCODING 90
SWIDTH 675 0
DWIDTH 11 0
BBX 9 12 1 0
BITMAP
ff80
ff80
0780
0f00
0e00
1e00
3c00
3800
7800
f000
ff80
ff80
ENDCHAR
STARTCHAR bracketleft
ENCODING 91
SWIDTH 386 0
DWIDTH 7 0
BBX 5 15 1 -3
BITMAP
f8
f8
e0
e0
e0
e0
e0
e0
e0
e0
e0
e0
e0
f8
f8
ENDCHAR
STARTCHAR backslash
ENCODING 92
SWIDTH 596 0
DWIDTH 10 0
BBX 10 15 0 -3
BITMAP
e000
6000
7000
3000
3800
1800
1c00
0c00
0e00
0600
0700
0300
0380
0180
01c0
ENDCHAR
STARTCHAR bracketright
ENCODING 93
SWIDTH 386 0
DWIDTH 7 0
BBX 5 15 1 -3
BITMAP
f8
f8
38
38
38
38
38
38
38
38
38
38
38
f8
f8
ENDCHAR
STARTCHAR asciicircum
ENCODING 94
SWIDTH 687 0
DWIDTH 12 0
BBX 10 10 1 2
BITMAP
0400
0c00
0c00
1e00
1e00
3300
3300
6180
6180
c0c0
ENDCHAR
STARTCHAR underscore
ENCODING 95
SWIDTH 500 0
DWIDTH 9 0
BBX 7 2 1 -2
BITMAP
fe
fe
ENDCHAR
STARTCHAR grave
ENCODING 96
SWIDTH 675 0
DWIDTH 11 0
BBX 4 2 3 10
BITMAP
e0
30
ENDCHAR
STARTCHAR a
ENCODING 97
SWIDTH 623 0
DWIDTH 11 0
BBX 9 9 1 0
BITMAP
7e00
7f00
4700
0700
7f00
ff00
e700
ff80
7b80
ENDCHAR
STARTCHAR b
ENCODING 98
SWIDTH 696 0
DWIDTH 12 0
BBX 10 12 1 0
BITMAP
e000
e000
e000
ef00
ff80
f3c0
e1c0
e1c0
e1c0
e3c0
ff80
ef00
ENDCHAR
STARTCHAR c
ENCODING 99
SWIDTH 545 0
DWIDTH 9 0
BBX 8 9 1 0
BITMAP
1f
7f
f1
e0
e0
e0
f0
7f
3f
ENDCHAR
STARTCHAR d
ENCODING 100
SWIDTH 696 0
DWIDTH 12 0
BBX 10 12 1 0
BITMAP
01c0
01c0
01c0
3dc0
7fc0
f1c0
e1c0
e1c0
e1c0
f3c0
7fc0
3dc0
ENDCHAR
STARTCHAR e
ENCODING 101
SWIDTH 614 0
DWIDTH 10 0
BBX 9 9 1 0
BITMAP
3e00
7f00
e380
ff80
ff80
e000
f080
7f80
1f80
ENDCHAR
STARTCHAR f
ENCODING 102
SWIDTH 461 0
DWIDTH 8 0
BBX 7 12 1 0
BITMAP
3e
7e
70
fc
fc
70
70
70
70
70
70
70
ENDCHAR
STARTCHAR g
ENCODING 103
SWIDTH 696 0
DWIDTH 12 0
BBX 10 12 1 -3
BITMAP
3dc0
7fc0
f1c0
e1c0
e1c0
e1c0
f3c0
7dc0
39c0
43c0
7f80
3f00
ENDCHAR
STARTCHAR h
ENCODING 104
SWIDTH 693 0
DWIDTH 12 0
BBX 9 12 1 0
BITMAP
e000
e000
e000
ef00
ff80
f380
e380
e380
e380
e380
e380
e380
ENDCHAR
STARTCHAR i
ENCODING 105
SWIDTH 361 0
DWIDTH 6 0
BBX 3 12 2 0
BITMAP
e0
e0
00
e0
e0
e0
e0
e0
e0
e0
e0
e0
ENDCHAR
STARTCHAR j
ENCODING 106
SWIDTH 361 0
DWIDTH 6 0
BBX 6 15 0 -3
BITMAP
1c
1c
00
1c
1c
1c
1c
1c
1c
1c
1c
1c
1c
fc
f8
ENDCHAR
STARTCHAR k
ENCODING 107
SWIDTH 681 0
DWIDTH 12 0
BBX 9 12 2 0
BITMAP
e000
e000
e000
e700
e600
ee00
ec00
fc00
ee00
ef00
e700
e780
ENDCHAR
STARTCHAR l
ENCODING 108
SWIDTH 361 0
DWIDTH 6 0
BBX 3 12 2 0
BITMAP
e0
e0
e0
e0
e0
e0
e0
e0
e0
e0
e0
e0
ENDCHAR
STARTCHAR m
ENCODING 109
SWIDTH 1006 0
DWIDTH 17 0
BBX 15 9 1 0
BITMAP
ef3c
fffe
f3ce
e38e
e38e
e38e
e38e
e38e
e38e
ENDCHAR
STARTCHAR n
ENCODING 110
SWIDTH 693 0
DWIDTH 12 0
BBX 9 9 1 0
BITMAP
ef00
ff80
f380
e380
e380
e380
e380
e380
e380
ENDCHAR
STARTCHAR o
ENCODING 111
SWIDTH 675 0
DWIDTH 11 0
BBX 10 9 1 0
BITMAP
1e00
7f80
f3c0
e1c0
e1c0
e1c0
f3c0
7f80
1e00
ENDCHAR
STARTCHAR p
ENCODING 112
SWIDTH 696 0
DWIDTH 12 0
BBX 10 12 1 -3
BITMAP
ef00
ff80
f3c0
e1c0
e1c0
e1c0
e3c0
ff80
ef00
e000
e000
e000
ENDCHAR
STARTCHAR q
ENCODING 113
SWIDTH 696 0
DWIDTH 12 0
BBX 10 12 1 -3
BITMAP
3dc0
7fc0
f1c0
e1c0
e1c0
e1c0
f3c0
7fc0
3dc0
01c0
01c0
01c0
ENDCHAR
STARTCHAR r
ENCODING 114
SWIDTH 500 0
DWIDTH 8 0
BBX 6 9 2 0
BITMAP
ec
fc
fc
e0
e0
e0
e0
e0
e0
ENDCHAR
STARTCHAR s
ENCODING 115
SWIDTH 622 0
DWIDTH 11 0
BBX 8 9 1 0
BITMAP
7e
fe
e2
f0
7e
1f
87
ff
fc
ENDCHAR
STARTCHAR t
ENCODING 116
SWIDTH 436 0
DWIDTH 7 0
BBX 6 11 1 0
BITMAP
70
70
fc
fc
70
70
70
70
70
7c
3c
ENDCHAR
STARTCHAR u
ENCODING 117
SWIDTH 693 0
DWIDTH 12 0
BBX 9 9 1 0
BITMAP
e380
e380
e380
e380
e380
e380
e780
ff80
7b80
ENDCHAR
STARTCHAR v
ENCODING 118
SWIDTH 663 0
DWIDTH 11 0
BBX 10 9 1 0
BITMAP
f0c0
7180
7180
7980
3b00
3b00
1f00
1e00
1e00
ENDCHAR
STARTCHAR w
ENCODING 119
SWIDTH 885 0
DWIDTH 15 0
BBX 14 9 1 0
BITMAP
e38c
e39c
7798
77d8
77d8
7df0
3cf0
3cf0
3cf0
ENDCHAR
STARTCHAR x
ENCODING 120
SWIDTH 568 0
DWIDTH 10 0
BBX 9 9 0 0
BITMAP
f380
7b00
3e00
3e00
1c00
3e00
3f00
6700
e780
ENDCHAR
STARTCHAR y
ENCODING 121
SWIDTH 645 0
DWIDTH 11 0
BBX 11 12 0 -3
BITMAP
f0e0
70c0
79c0
3980
3b80
1f00
1f00
1e00
0c00
1c00
3800
7800
ENDCHAR
STARTCHAR z
ENCODING 122
SWIDTH 608 0
DWIDTH 10 0
BBX 9 9 1 0
BITMAP
ff80
ff80
0f00
1e00
3c00
7c00
f800
ff80
ff80
ENDCHAR
STARTCHAR braceleft
ENCODING 123
SWIDTH 386 0
DWIDTH 7 0
BBX 5 15 1 -3
BITMAP
38
78
70
70
38
38
f0
e0
30
38
38
70
70
78
38
ENDCHAR
STARTCHAR bar
ENCODING 124
SWIDTH 265 0
DWIDTH 4 0
BBX 2 15 1 -3
BITMAP
c0
c0
c0
c0
c0
c0
c0
c0
c0
c0
c0
c0
c0
c0
c0
ENDCHAR
STARTCHAR braceright
ENCODING 125
SWIDTH 386 0
DWIDTH 7 0
BBX 5 15 1 -3
BITMAP
c0
e0
e0
e0
e0
e0
78
38
60
e0
e0
e0
e0
e0
c0
ENDCHAR
STARTCHAR asciitilde
ENCODING 126
SWIDTH 687 0
DWIDTH 12 0
BBX 10 4 1 3
BITMAP
70c0
fcc0
cfc0
c380
ENDCHAR
STARTCHAR nobreakspace
ENCODING 160
SWIDTH 343 0
DWIDTH 6 0
BBX 1 1 0 0
BITMAP
00
ENDCHAR
STARTCHAR Aogonek
ENCODING 161
SWIDTH 773 0
DWIDTH 13 0
BBX 13 14 0 -2
BITMAP
0700
0f80
0f80
1fc0
19c0
19c0
31e0
3fe0
7ff0
6070
6070
c078
0600
0700
ENDCHAR
STARTCHAR breve
ENCODING 162
SWIDTH 675 0
DWIDTH 11 0
BBX 6 2 3 10
BITMAP
cc
78
ENDCHAR
STARTCHAR Lstroke
ENCODING 163
SWIDTH 620 0
DWIDTH 11 0
BBX 11 12 0 0
BITMAP
3800
3800
3800
3a00
3e00
3c00
f800
f800
b800
3800
3fe0
3fe0
ENDCHAR
STARTCHAR currency
ENCODING 164
SWIDTH 687 0
DWIDTH 12 0
BBX 12 12 0 0
BITMAP
4020
e070
76e0
3fc0
39c0
30c0
30c0
39c0
3fc0
7fe0
e070
4020
ENDCHAR
STARTCHAR Lcaron
ENCODING 165
SWIDTH 620 0
DWIDTH 11 0
BBX 9 13 1 0
BITMAP
0e00
ee00
ee00
e600
ec00
e000
e000
e000
e000
e000
e000
ff80
ff80
ENDCHAR
STARTCHAR Sacute
ENCODING 166
SWIDTH 594 0
DWIDTH 10 0
BBX 9 15 1 0
BITMAP
0700
0c00
0000
3f00
7f00
f100
f000
f800
7e00
3f00
0780
0380
8380
ff00
fe00
ENDCHAR
STARTCHAR section
ENCODING 167
SWIDTH 693 0
DWIDTH 12 0
BBX 9 15 1 -3
BITMAP
7f00
ff00
e000
f000
7e00
7f00
cf80
e180
fd80
7f00
3f00
0780
8380
ff00
fe00
ENDCHAR
STARTCHAR diaeresis
ENCODING 168
SWIDTH 675 0
DWIDTH 11 0
BBX 6 2 3 10
BITMAP
cc
cc
ENDCHAR
STARTCHAR Scaron
ENCODING 169
SWIDTH 594 0
DWIDTH 10 0
BBX 9 15 1 0
BITMAP
3300
1e00
0000
3f00
7f00
f100
f000
f800
7e00
3f00
0780
0380
8380
ff00
fe00
ENDCHAR
STARTCHAR Scedilla
ENCODING 170
SWIDTH 594 0
DWIDTH 10 0
BBX 9 15 1 -3
BITMAP
3f00
7f00
f100
f000
f800
7e00
3f00
0780
0380
8380
ff00
fe00
1800
0c00
1c00
ENDCHAR
STARTCHAR Tcaron
ENCODING 171
SWIDTH 735 0
DWIDTH 12 0
BBX 11 15 1 0
BITMAP
1980
0f00
0000
ffe0
ffe0
0e00
0e00
0e00
0e00
0e00
0e00
0e00
0e00
0e00
0e00
ENDCHAR
STARTCHAR Zacute
ENCODING 172
SWIDTH 675 0
DWIDTH 11 0
BBX 9 15 1 0
BITMAP
0700
0c00
0000
ff80
ff80
0780
0f00
0e00
1e00
3c00
3800
7800
f000
ff80
ff80
ENDCHAR
STARTCHAR hyphen
ENCODING 173
SWIDTH 289 0
DWIDTH 5 0
BBX 4 2 0 4
BITMAP
f0
f0
ENDCHAR
STARTCHAR Zcaron
ENCODING 174
SWIDTH 675 0
DWIDTH 11 0
BBX 9 15 1 0
BITMAP
3300
1e00
0000
ff80
ff80
0780
0f00
0e00
1e00
3c00
3800
7800
f000
ff80
ff80
ENDCHAR
STARTCHAR Zabovedot
ENCODING 175
SWIDTH 675 0
DWIDTH 11 0
BBX 9 15 1 0
BITMAP
0c00
0c00
0000
ff80
ff80
0780
0f00
0e00
1e00
3c00
3800
7800
f000
ff80
ff80
ENDCHAR
STARTCHAR degree
ENCODING 176
SWIDTH 241 0
DWIDTH 4 0
BBX 3 3 1 9
BITMAP
e0
a0
e0
ENDCHAR
STARTCHAR aogonek
ENCODING 177
SWIDTH 623 0
DWIDTH 11 0
BBX 9 11 1 -2
BITMAP
7e00
7f00
4700
0700
7f00
ff00
e700
ff80
7b80
1800
1c00
ENDCHAR
STARTCHAR ogonek
ENCODING 178
SWIDTH 675 0
DWIDTH 11 0
BBX 3 2 4 -3
BITMAP
c0
e0
ENDCHAR
STARTCHAR lstroke
ENCODING 179
SWIDTH 361 0
DWIDTH 6 0
BBX 7 12 0 0
BITMAP
38
38
38
3a
3e
3c
f8
f8
38
38
38
38
ENDCHAR
STARTCHAR acute
ENCODING 180
SWIDTH 675 0
DWIDTH 11 0
BBX 4 2 4 10
BITMAP
70
c0
ENDCHAR
STARTCHAR lcaron
ENCODING 181
SWIDTH 600 0
DWIDTH 10 0
BBX 7 13 2 0
BITMAP
0e
ee
ee
e6
ec
e0
e0
e0
e0
e0
e0
e0
e0
ENDCHAR
STARTCHAR sacute
ENCODING 182
SWIDTH 622 0
DWIDTH 11 0
BBX 8 12 1 0
BITMAP
0e
18
00
7e
fe
e2
f0
7e
1f
87
ff
fc
ENDCHAR
STARTCHAR caron
ENCODING 183
SWIDTH 675 0
DWIDTH 11 0
BBX 6 2 3 10
BITMAP
cc
78
ENDCHAR
STARTCHAR cedilla
ENCODING 184
SWIDTH 675 0
DWIDTH 11 0
BBX 3 3 4 -3
BITMAP
c0
60
e0
ENDCHAR
STARTCHAR scaron
ENCODING 185
SWIDTH 622 0
DWIDTH 11 0
BBX 8 12 1 0
BITMAP
66
3c
00
7e
fe
e2
f0
7e
1f
87
ff
fc
ENDCHAR
STARTCHAR scedilla
ENCODING 186
SWIDTH 622 0
DWIDTH 11 0
BBX 8 12 1 -3
BITMAP
7e
fe
e2
f0
7e
1f
87
ff
fc
30
18
38
ENDCHAR
STARTCHAR tcaron
ENCODING 187
SWIDTH 540 0
DWIDTH 9 0
BBX 8 15 1 0
BITMAP
07
07
07
03
76
70
fc
fc
70
70
70
70
70
7c
3c
ENDCHAR
STARTCHAR zacute
ENCODING 188
SWIDTH 608 0
DWIDTH 10 0
BBX 9 12 1 0
BITMAP
0700
0c00
0000
ff80
ff80
0f00
1e00
3c00
7c00
f800
ff80
ff80
ENDCHAR
STARTCHAR doubleacute
ENCODING 189
SWIDTH 675 0
DWIDTH 11 0
BBX 6 2 4 10
BITMAP
6c
d0
ENDCHAR
STARTCHAR zcaron
ENCODING 190
SWIDTH 608 0
DWIDTH 10 0
BBX 9 12 1 0
BITMAP
3300
1e00
0000
ff80
ff80
0f00
1e00
3c00
7c00
f800
ff80
ff80
ENDCHAR
STARTCHAR zabovedot
ENCODING 191
SWIDTH 608 0
DWIDTH 10 0
BBX 9 12 1 0
BITMAP
0c00
0c00
0000
ff80
ff80
0f00
1e00
3c00
7c00
f800
ff80
ff80
ENDCHAR
STARTCHAR Racute
ENCODING 192
SWIDTH 734 0
DWIDTH 12 0
BBX 11 15 1 0
BITMAP
0700
0c00
0000
fe00
ff80
e380
e380
e780
ff00
fe00
ef00
e700
e380
e3c0
e1e0
ENDCHAR
STARTCHAR Aacute
ENCODING 193
SWIDTH 773 0
DWIDTH 13 0
BBX 13 15 0 0
BITMAP
0380
0600
0000
0700
0f80
0f80
1fc0
19c0
19c0
31e0
3fe0
7ff0
6070
6070
c078
ENDCHAR
STARTCHAR Acircumflex
ENCODING 194
SWIDTH 773 0
DWIDTH 13 0
BBX 13 15 0 0
BITMAP
0780
0cc0
0000
0700
0f80
0f80
1fc0
19c0
19c0
31e0
3fe0
7ff0
6070
6070
c078
ENDCHAR
STARTCHAR Abreve
ENCODING 195
SWIDTH 773 0
DWIDTH 13 0
BBX 13 15 0 0
BITMAP
0cc0
0780
0000
0700
0f80
0f80
1fc0
19c0
19c0
31e0
3fe0
7ff0
6070
6070
c078
ENDCHAR
STARTCHAR Adiaeresis
ENCODING 196
SWIDTH 773 0
DWIDTH 13 0
BBX 13 15 0 0
BITMAP
0cc0
0cc0
0000
0700
0f80
0f80
1fc0
19c0
19c0
31e0
3fe0
7ff0
6070
6070
c078
ENDCHAR
STARTCHAR Lacute
ENCODING 197
SWIDTH 620 0
DWIDTH 11 0
BBX 9 15 1 0
BITMAP
3800
6000
0000
e000
e000
e000
e000
e000
e000
e000
e000
e000
e000
ff80
ff80
ENDCHAR
STARTCHAR Cacute
ENCODING 198
SWIDTH 726 0
DWIDTH 12 0
BBX 11 15 1 0
BITMAP
01c0
0300
0000
0fe0
3fe0
7820
f000
e000
e000
e000
e000
f000
7820
3fe0
0fc0
ENDCHAR
STARTCHAR Ccedilla
ENCODING 199
SWIDTH 726 0
DWIDTH 12 0
BBX 11 15 1 -3
BITMAP
0fe0
3fe0
7820
f000
e000
e000
e000
e000
f000
7820
3fe0
0fc0
0400
0600
0e00
ENDCHAR
STARTCHAR Ccaron
ENCODING 200
SWIDTH 726 0
DWIDTH 12 0
BBX 11 15 1 0
BITMAP
0cc0
0780
0000
0fe0
3fe0
7820
f000
e000
e000
e000
e000
f000
7820
3fe0
0fc0
ENDCHAR
STARTCHAR Eacute
ENCODING 201
SWIDTH 645 0
DWIDTH 11 0
BBX 9 15 1 0
BITMAP
0e00
1800
0000
ff80
ff80
e000
e000
e000
ff00
ff00
e000
e000
e000
ff80
ff80
ENDCHAR
STARTCHAR Eogonek
ENCODING 202
SWIDTH 645 0
DWIDTH 11 0
BBX 9 14 1 -2
BITMAP
ff80
ff80
e000
e000
e000
ff00
ff00
e000
e000
e000
ff80
ff80
1800
1c00
ENDCHAR
STARTCHAR Ediaeresis
ENCODING 203
SWIDTH 645 0
DWIDTH 11 0
BBX 9 15 1 0
BITMAP
6600
6600
0000
ff80
ff80
e000
e000
e000
ff00
ff00
e000
e000
e000
ff80
ff80
ENDCHAR
STARTCHAR Ecaron
ENCODING 204
SWIDTH 645 0
DWIDTH 11 0
BBX 9 15 1 0
BITMAP
3300
1e00
0000
ff80
ff80
e000
e000
e000
ff00
ff00
e000
e000
e000
ff80
ff80
ENDCHAR
STARTCHAR Iacute
ENCODING 205
SWIDTH 361 0
DWIDTH 6 0
BBX 4 15 2 0
BITMAP
70
c0
00
e0
e0
e0
e0
e0
e0
e0
e0
e0
e0
e0
e0
ENDCHAR
STARTCHAR Icircumflex
ENCODING 206
SWIDTH 361 0
DWIDTH 6 0
BBX 6 15 3 0
BITMAP
78
cc
00
70
70
70
70
70
70
70
70
70
70
70
70
ENDCHAR
STARTCHAR Dcaron
ENCODING 207
SWIDTH 819 0
DWIDTH 14 0
BBX 12 15 1 0
BITMAP
3300
1e00
0000
ff80
ffc0
e1e0
e0f0
e070
e070
e070
e070
e070
e0e0
ffc0
ff80
ENDCHAR
STARTCHAR Dstroke
ENCODING 208
SWIDTH 819 0
DWIDTH 14 0
BBX 14 12 0 0
BITMAP
3fe0
3ff0
3878
383c
381c
fe1c
fe1c
381c
381c
3838
3ff0
3fe0
ENDCHAR
STARTCHAR Nacute
ENCODING 209
SWIDTH 783 0
DWIDTH 13 0
BBX 10 15 2 0
BITMAP
0700
0c00
0000
e0c0
f0c0
f0c0
f8c0
fcc0
dcc0
cec0
cfc0
c7c0
c3c0
c3c0
c1c0
ENDCHAR
STARTCHAR Ncaron
ENCODING 210
SWIDTH 783 0
DWIDTH 13 0
BBX 10 15 2 0
BITMAP
3300
1e00
0000
e0c0
f0c0
f0c0
f8c0
fcc0
dcc0
cec0
cfc0
c7c0
c3c0
c3c0
c1c0
ENDCHAR
STARTCHAR Oacute
ENCODING 211
SWIDTH 855 0
DWIDTH 15 0
BBX 13 15 1 0
BITMAP
0380
0600
0000
0f80
3fe0
78f0
f078
e038
e038
e038
e038
f078
78f0
3fe0
0f80
ENDCHAR
STARTCHAR Ocircumflex
ENCODING 212
SWIDTH 855 0
DWIDTH 15 0
BBX 13 15 1 0
BITMAP
0780
0cc0
0000
0f80
3fe0
78f0
f078
e038
e038
e038
e038
f078
78f0
3fe0
0f80
ENDCHAR
STARTCHAR Odoubleacute
ENCODING 213
SWIDTH 855 0
DWIDTH 15 0
BBX 13 15 1 0
BITMAP
0360
0680
0000
0f80
3fe0
78f0
f078
e038
e038
e038
e038
f078
78f0
3fe0
0f80
ENDCHAR
STARTCHAR Odiaeresis
ENCODING 214
SWIDTH 855 0
DWIDTH 15 0
BBX 13 15 1 0
BITMAP
0cc0
0cc0
0000
0f80
3fe0
78f0
f078
e038
e038
e038
e038
f078
78f0
3fe0
0f80
ENDCHAR
STARTCHAR multiply
ENCODING 215
SWIDTH 687 0
DWIDTH 12 0
BBX 10 10 1 0
BITMAP
4080
e1c0
7380
3f00
1e00
1e00
3f00
7380
e1c0
4080
ENDCHAR
STARTCHAR Rcaron
ENCODING 216
SWIDTH 734 0
DWIDTH 12 0
BBX 11 15 1 0
BITMAP
3300
1e00
0000
fe00
ff80
e380
e380
e780
ff00
fe00
ef00
e700
e380
e3c0
e1e0
ENDCHAR
STARTCHAR Uring
ENCODING 217
SWIDTH 783 0
DWIDTH 13 0
BBX 10 15 2 0
BITMAP
1c00
1c00
0000
e1c0
e1c0
e1c0
e1c0
e1c0
e1c0
e1c0
e1c0
e1c0
f3c0
7f80
3f00
ENDCHAR
STARTCHAR Uacute
ENCODING 218
SWIDTH 783 0
DWIDTH 13 0
BBX 10 15 2 0
BITMAP
0700
0c00
0000
e1c0
e1c0
e1c0
e1c0
e1c0
e1c0
e1c0
e1c0
e1c0
f3c0
7f80
3f00
ENDCHAR
STARTCHAR Udoubleacute
ENCODING 219
SWIDTH 783 0
DWIDTH 13 0
BBX 10 15 2 0
BITMAP
0d80
1a00
0000
e1c0
e1c0
e1c0
e1c0
e1c0
e1c0
e1c0
e1c0
e1c0
f3c0
7f80
3f00
ENDCHAR
STARTCHAR Udiaeresis
ENCODING 220
SWIDTH 783 0
DWIDTH 13 0
BBX 10 15 2 0
BITMAP
3300
3300
0000
e1c0
e1c0
e1c0
e1c0
e1c0
e1c0
e1c0
e1c0
e1c0
f3c0
7f80
3f00
ENDCHAR
STARTCHAR Yacute
ENCODING 221
SWIDTH 738 0
DWIDTH 13 0
BBX 11 15 1 0
BITMAP
0700
0c00
0000
f0e0
70c0
79c0
3980
1f00
1f00
0e00
0e00
0e00
0e00
0e00
0e00
ENDCHAR
STARTCHAR Tcedilla
ENCODING 222
SWIDTH 735 0
DWIDTH 12 0
BBX 11 15 1 -3
BITMAP
ffe0
ffe0
0e00
0e00
0e00
0e00
0e00
0e00
0e00
0e00
0e00
0e00
0c00
0600
0e00
ENDCHAR
STARTCHAR ssharp
ENCODING 223
SWIDTH 724 0
DWIDTH 12 0
BBX 11 12 1 0
BITMAP
3e00
7f00
e780
e700
e600
ee00
ef80
e7c0
e1e0
e0e0
efe0
efc0
ENDCHAR
STARTCHAR racute
ENCODING 224
SWIDTH 500 0
DWIDTH 8 0
BBX 6 12 2 0
BITMAP
1c
30
00
ec
fc
fc
e0
e0
e0
e0
e0
e0
ENDCHAR
STARTCHAR aacute
ENCODING 225
SWIDTH 623 0
DWIDTH 11 0
BBX 9 12 1 0
BITMAP
0e00
1800
0000
7e00
7f00
4700
0700
7f00
ff00
e700
ff80
7b80
ENDCHAR
STARTCHAR acircumflex
ENCODING 226
SWIDTH 623 0
DWIDTH 11 0
BBX 9 12 1 0
BITMAP
1e00
3300
0000
7e00
7f00
4700
0700
7f00
ff00
e700
ff80
7b80
ENDCHAR
STARTCHAR abreve
ENCODING 227
SWIDTH 623 0
DWIDTH 11 0
BBX 9 12 1 0
BITMAP
3300
1e00
0000
7e00
7f00
4700
0700
7f00
ff00
e700
ff80
7b80
ENDCHAR
STARTCHAR adiaeresis
ENCODING 228
SWIDTH 623 0
DWIDTH 11 0
BBX 9 12 1 0
BITMAP
3300
3300
0000
7e00
7f00
4700
0700
7f00
ff00
e700
ff80
7b80
ENDCHAR
STARTCHAR lacute
ENCODING 229
SWIDTH 361 0
DWIDTH 6 0
BBX 5 15 2 0
BITMAP
38
60
00
e0
e0
e0
e0
e0
e0
e0
e0
e0
e0
e0
e0
ENDCHAR
STARTCHAR cacute
ENCODING 230
SWIDTH 545 0
DWIDTH 9 0
BBX 8 12 1 0
BITMAP
07
0c
00
1f
7f
f1
e0
e0
e0
f0
7f
3f
ENDCHAR
STARTCHAR ccedilla
ENCODING 231
SWIDTH 545 0
DWIDTH 9 0
BBX 8 12 1 -3
BITMAP
1f
7f
f1
e0
e0
e0
f0
7f
3f
08
0c
1c
ENDCHAR
STARTCHAR ccaron
ENCODING 232
SWIDTH 545 0
DWIDTH 9 0
BBX 8 12 1 0
BITMAP
33
1e
00
1f
7f
f1
e0
e0
e0
f0
7f
3f
ENDCHAR
STARTCHAR eacute
ENCODING 233
SWIDTH 614 0
DWIDTH 10 0
BBX 9 12 1 0
BITMAP
0e00
1800
0000
3e00
7f00
e380
ff80
ff80
e000
f080
7f80
1f80
ENDCHAR
STARTCHAR eogonek
ENCODING 234
SWIDTH 614 0
DWIDTH 10 0
BBX 9 11 1 -2
BITMAP
3e00
7f00
e380
ff80
ff80
e000
f080
7f80
1f80
1800
1c00
ENDCHAR
STARTCHAR ediaeresis
ENCODING 235
SWIDTH 614 0
DWIDTH 10 0
BBX 9 12 1 0
BITMAP
3300
3300
0000
3e00
7f00
e380
ff80
ff80
e000
f080
7f80
1f80
ENDCHAR
STARTCHAR ecaron
ENCODING 236
SWIDTH 614 0
DWIDTH 10 0
BBX 9 12 1 0
BITMAP
3300
1e00
0000
3e00
7f00
e380
ff80
ff80
e000
f080
7f80
1f80
ENDCHAR
STARTCHAR iacute
ENCODING 237
SWIDTH 361 0
DWIDTH 6 0
BBX 4 12 2 0
BITMAP
70
c0
00
e0
e0
e0
e0
e0
e0
e0
e0
e0
ENDCHAR
STARTCHAR icircumflex
ENCODING 238
SWIDTH 361 0
DWIDTH 6 0
BBX 6 12 3 0
BITMAP
78
cc
00
70
70
70
70
70
70
70
70
70
ENDCHAR
STARTCHAR dcaron
ENCODING 239
SWIDTH 960 0
DWIDTH 16 0
BBX 14 13 1 0
BITMAP
001c
01dc
01dc
01cc
3dd8
7fc0
f1c0
e1c0
e1c0
e1c0
f3c0
7fc0
3dc0
ENDCHAR
STARTCHAR dstroke
ENCODING 240
SWIDTH 900 0
DWIDTH 15 0
BBX 13 12 1 0
BITMAP
01c0
0ff8
01c0
3dc0
7fc0
f1c0
e1c0
e1c0
e1c0
f3c0
7fc0
3dc0
ENDCHAR
STARTCHAR nacute
ENCODING 241
SWIDTH 693 0
DWIDTH 12 0
BBX 9 12 1 0
BITMAP
0700
0c00
0000
ef00
ff80
f380
e380
e380
e380
e380
e380
e380
ENDCHAR
STARTCHAR ncaron
ENCODING 242
SWIDTH 693 0
DWIDTH 12 0
BBX 9 12 1 0
BITMAP
3300
1e00
0000
ef00
ff80
f380
e380
e380
e380
e380
e380
e380
ENDCHAR
STARTCHAR oacute
ENCODING 243
SWIDTH 675 0
DWIDTH 11 0
BBX 10 12 1 0
BITMAP
0700
0c00
0000
1e00
7f80
f3c0
e1c0
e1c0
e1c0
f3c0
7f80
1e00
ENDCHAR
STARTCHAR ocircumflex
ENCODING 244
SWIDTH 675 0
DWIDTH 11 0
BBX 10 12 1 0
BITMAP
1e00
3300
0000
1e00
7f80
f3c0
e1c0
e1c0
e1c0
f3c0
7f80
1e00
ENDCHAR
STARTCHAR odoubleacute
ENCODING 245
SWIDTH 675 0
DWIDTH 11 0
BBX 10 12 1 0
BITMAP
0d80
1a00
0000
1e00
7f80
f3c0
e1c0
e1c0
e1c0
f3c0
7f80
1e00
ENDCHAR
STARTCHAR odiaeresis
ENCODING 246
SWIDTH 675 0
DWIDTH 11 0
BBX 10 12 1 0
BITMAP
3300
3300
0000
1e00
7f80
f3c0
e1c0
e1c0
e1c0
f3c0
7f80
1e00
ENDCHAR
STARTCHAR division
ENCODING 247
SWIDTH 687 0
DWIDTH 12 0
BBX 10 10 1 0
BITMAP
0c00
0c00
0000
0000
ffc0
ffc0
0000
0000
0c00
0c00
ENDCHAR
STARTCHAR rcaron
ENCODING 248
SWIDTH 500 0
DWIDTH 8 0
BBX 6 12 2 0
BITMAP
cc
78
00
ec
fc
fc
e0
e0
e0
e0
e0
e0
ENDCHAR
STARTCHAR uring
ENCODING 249
SWIDTH 693 0
DWIDTH 12 0
BBX 9 12 1 0
BITMAP
1c00
1c00
0000
e380
e380
e380
e380
e380
e380
e780
ff80
7b80
ENDCHAR
STARTCHAR uacute
ENCODING 250
SWIDTH 693 0
DWIDTH 12 0
BBX 9 12 1 0
BITMAP
0e00
1800
0000
e380
e380
e380
e380
e380
e380
e780
ff80
7b80
ENDCHAR
STARTCHAR udoubleacute
ENCODING 251
SWIDTH 693 0
DWIDTH 12 0
BBX 9 12 1 0
BITMAP
0d80
1a00
0000
e380
e380
e380
e380
e380
e380
e780
ff80
7b80
ENDCHAR
STARTCHAR udiaeresis
ENCODING 252
SWIDTH 693 0
DWIDTH 12 0
BBX 9 12 1 0
BITMAP
3300
3300
0000
e380
e380
e380
e380
e380
e380
e780
ff80
7b80
ENDCHAR
STARTCHAR yacute
ENCODING 253
SWIDTH 645 0
DWIDTH 11 0
BBX 11 15 0 -3
BITMAP
0700
0c00
0000
f0e0
70c0
79c0
3980
3b80
1f00
1f00
1e00
0c00
1c00
3800
7800
ENDCHAR
STARTCHAR tcedilla
ENCODING 254
SWIDTH 436 0
DWIDTH 7 0
BBX 6 14 1 -3
BITMAP
70
70
fc
fc
70
70
70
70
70
7c
3c
60
30
70
ENDCHAR
STARTCHAR abovedot
ENCODING 255
SWIDTH 675 0
DWIDTH 11 0
BBX 2 2 5 10
BITMAP
c0
c0
ENDCHAR
ENDFONT
